<svg id="Layer_1" xmlns="http://www.w3.org/2000/svg" xmlns:xlink="http://www.w3.org/1999/xlink" width="160" height="160" viewBox="0 0 160 160" enable-background="new 0 0 160 160"><g id="g5193" transform="translate(4.988 -113.385)" display="none"><path id="path5113" display="inline" fill="#d4b830" d="M24.669 255.951 12.418 121.084l131.983.052-12.148 134.712-53.945 15.236L24.669 255.951zM122.319 248.59l10.243-115.512h-54.05l.412 127.403L122.319 248.59zM73.468 150.015H60.341l-.154 69.132-25.48-6.95L34.758 228l38.71 10.449V150.015v0z"/><path id="path5159" display="inline" fill="#d12020" d="M69.143 237.162c-1.699-.515-10.089-2.779-18.634-5.096l-15.495-4.17v-7.772c0-7.618.0-7.773.772-7.516.412.154 6.074 1.699 12.56 3.5l11.788 3.243.103-34.488.103-34.489H73.21v43.857c0 34.85-.103 43.857-.463 43.857C72.49 238.037 70.842 237.625 69.143 237.162v0z"/><path id="path5157" display="inline" fill="#fff" d="M34.758 228l-.051-15.804c0 0 16.266 4.581 25.48 6.95l.154-69.081h13.126v88.384L34.758 228v0z"/><path id="path5117" display="inline" fill="#fdd83c" d="M78.512 133.027h54.05l-10.243 115.512L78.512 260.43V133.027zM119.538 229.184l3.552-43.188-26.253 2.935v-23.061l28.003-.104 1.133-15.751-42.262.205.566 57.344 25.531-4.375-.359 12.767-25.738 6.846.258 15.648L119.538 229.184v0z"/></g><g><path fill="#563d7c" d="M5.485 136.002c0 10.683 8.659 19.342 19.341 19.342h111.318c10.683.0 19.341-8.66 19.341-19.342V24.685c0-10.683-8.659-19.341-19.341-19.341H24.827c-10.683.0-19.341 8.659-19.341 19.341V136.002z"/><path fill="#fff" d="M67.687 71.694V50.451h18.698c1.781.0 3.498.148 5.152.445 1.653.297 3.116.827 4.389 1.59 1.271.763 2.289 1.823 3.052 3.18.764 1.357 1.146 3.096 1.146 5.215.0 3.817-1.146 6.572-3.435 8.269-2.289 1.696-5.215 2.544-8.776 2.544H67.687v0zM47.717 34.933v90.821h44.012c4.069.0 8.034-.51 11.893-1.526 3.858-1.018 7.292-2.587 10.303-4.706 3.011-2.121 5.406-4.855 7.187-8.204 1.781-3.35 2.672-7.315 2.672-11.895.0-5.682-1.378-10.536-4.134-14.563-2.757-4.028-6.933-6.849-12.529-8.459 4.07-1.951 7.144-4.453 9.222-7.505 2.078-3.053 3.116-6.869 3.116-11.448.0-4.24-.699-7.801-2.099-10.685s-3.37-5.194-5.914-6.933c-2.545-1.738-5.598-2.989-9.159-3.752-3.562-.763-7.505-1.145-11.83-1.145H47.717V34.933zM67.687 110.235V85.305h21.75c4.325.0 7.802.995 10.431 2.989 2.629 1.992 3.943 5.32 3.943 9.984.0 2.375-.402 4.325-1.208 5.852-.806 1.525-1.888 2.734-3.243 3.625-1.357.89-2.927 1.526-4.707 1.908-1.78.381-3.646.572-5.597.572H67.687V110.235z"/></g></svg>