<svg width="141" height="25" viewBox="0 0 141 25" fill="none" xmlns="http://www.w3.org/2000/svg">
<path d="M92.6887 12.6914C92.6887 10.3135 91.5197 8.85523 89.6672 8.85523C87.8146 8.85523 86.6452 10.3135 86.6452 12.6914C86.6452 15.0824 87.8146 16.5276 89.6672 16.5276C91.5197 16.5276 92.6887 15.0824 92.6887 12.6914ZM82.4939 12.6914C82.4939 8.14559 85.6204 5.36035 89.6672 5.36035C93.7135 5.36035 96.8404 8.14559 96.8404 12.6914C96.8404 17.2368 93.7135 20.0224 89.6672 20.0224C85.6204 20.0224 82.4939 17.2368 82.4939 12.6914Z" fill="white"/>
<path d="M109.019 12.6914C109.019 10.2344 107.811 8.84209 106.103 8.84209C104.369 8.84209 103.12 10.2607 103.12 12.6914C103.12 15.1217 104.369 16.5407 106.103 16.5407C107.811 16.5407 109.019 15.1348 109.019 12.6914ZM113.171 12.6914C113.171 17.0533 110.728 20.0224 107.298 20.0224C105.538 20.0224 104.171 19.2603 103.239 18.1044V24.2527H99.1663V5.74145H103.16V7.35752C104.066 6.18809 105.459 5.36035 107.364 5.36035C110.767 5.36035 113.171 8.17173 113.171 12.6914Z" fill="white"/>
<path d="M123.092 13.8474H121.463C119.676 13.8474 118.546 14.3207 118.546 15.4897C118.546 16.5408 119.269 17.1058 120.425 17.1058C122.002 17.1058 123.092 15.7523 123.092 14.5309V13.8474ZM127.165 11.1015V19.6544H123.171V18.1174C122.553 19.2341 121.279 20.0224 119.321 20.0224C116.773 20.0224 114.657 18.3932 114.657 15.6475C114.657 12.6915 116.852 11.233 121.069 11.233H123.066V11.0754C123.066 9.499 122.133 8.77622 120.648 8.77622C119.427 8.77622 118.376 9.35437 117.64 10.1952L115.262 7.77797C116.51 6.293 118.533 5.41284 120.964 5.41284C124.853 5.41284 127.165 7.26537 127.165 11.1015Z" fill="white"/>
<path d="M129.321 16.5926L135.824 9.05175H129.662V5.72778H140.75V8.8149L134.26 16.33H141V19.654H129.321V16.5926Z" fill="white"/>
<path d="M80.8278 16.391C81.0994 17.4455 81.3602 18.4574 81.6337 19.519C80.196 19.9575 78.7615 20.143 77.3002 19.94C76.75 19.8636 76.1858 19.7065 75.6889 19.4624C74.2697 18.7651 73.7783 17.4893 73.758 16.0053C73.7293 13.8873 73.7488 11.7686 73.7478 9.65022C73.7478 9.50454 73.7378 4.65225 73.7352 2.51137C73.7345 2.04843 74.0306 1.63831 74.4694 1.49065C75.5501 1.12703 76.4903 0.817396 77.811 0.310059V5.78279H81.1597V9.07681H77.8527C77.8368 9.26716 77.8159 9.4026 77.8158 9.53804C77.8137 11.2484 77.8146 12.9588 77.8148 14.6692C77.8148 14.7162 77.8152 14.7634 77.8167 14.8104C77.8655 16.3183 78.388 16.7591 79.8946 16.5547C80.1876 16.5151 80.4776 16.4532 80.8278 16.391Z" fill="white"/>
<path d="M68.6176 21.8061C68.5164 21.8061 68.4343 21.724 68.4343 21.6228V0.183256C68.4343 0.0821041 68.5164 0 68.6176 0C68.7187 0 68.8008 0.0821041 68.8008 0.183256V21.6228C68.8008 21.724 68.7187 21.8061 68.6176 21.8061Z" fill="white"/>
<path d="M0 12.7535C0 8.46414 3.04271 5.41919 7.30241 5.41919C10.0528 5.41919 12.2191 6.7167 13.1685 9.04661L10.2232 10.7676C9.51725 9.41733 8.47065 8.80832 7.27797 8.80832C5.35503 8.80832 3.84589 10.2646 3.84589 12.7535C3.84589 15.2424 5.35503 16.6986 7.27797 16.6986C8.47065 16.6986 9.51725 16.1161 10.2232 14.7393L13.1685 16.4868C12.2191 18.7639 10.0528 20.0877 7.30241 20.0877C3.04271 20.0877 0 17.0428 0 12.7535Z" fill="white"/>
<path d="M24.2684 12.7535C24.2684 10.2911 22.8322 8.80832 20.9337 8.80832C19.0352 8.80832 17.5746 10.2911 17.5746 12.7535C17.5746 15.2159 19.0352 16.6986 20.9337 16.6986C22.8322 16.6986 24.2684 15.2159 24.2684 12.7535ZM13.7288 12.7535C13.7288 8.46414 16.7715 5.41919 20.9337 5.41919C25.096 5.41919 28.1143 8.46414 28.1143 12.7535C28.1143 17.0428 25.096 20.0877 20.9337 20.0877C16.7715 20.0877 13.7288 17.0428 13.7288 12.7535Z" fill="white"/>
<path d="M40.5784 12.7536C40.5784 10.2911 39.1425 8.80837 37.2438 8.80837C35.3452 8.80837 33.9091 10.2911 33.9091 12.7536C33.9091 15.2159 35.3452 16.6986 37.2438 16.6986C39.1425 16.6986 40.5784 15.2159 40.5784 12.7536ZM44.4243 12.7536C44.4243 17.2283 41.5766 20.0878 37.9009 20.0878C36.1485 20.0878 34.7366 19.4788 33.7874 18.2345V19.876H30.1604V0.229736H33.9577V7.14028C34.9314 5.97532 36.2701 5.41924 37.9009 5.41924C41.5766 5.41924 44.4243 8.27883 44.4243 12.7536Z" fill="white"/>
<path d="M50.266 5.6311H46.469V19.876H50.266V5.6311Z" fill="white"/>
<path d="M52.0417 18.552L53.3076 15.5866C54.4758 16.4073 56.2528 16.9634 57.8593 16.9634C59.6119 16.9634 60.269 16.4603 60.269 15.666C60.269 13.336 52.3582 15.7189 52.3582 10.0262C52.3582 7.32558 54.5976 5.41919 58.4192 5.41919C60.2204 5.41919 62.2162 5.86938 63.4578 6.66363L62.1919 9.60269C60.9019 8.80832 59.6119 8.54361 58.4192 8.54361C56.7152 8.54361 55.985 9.12609 55.985 9.86739C55.985 12.3035 63.8959 9.94687 63.8959 15.5602C63.8959 18.2079 61.6322 20.0877 57.7132 20.0877C55.4981 20.0877 53.2587 19.4258 52.0417 18.552Z" fill="white"/>
</svg>
